<?xml version="1.0" standalone="no"?>
<!DOCTYPE svg PUBLIC "-//W3C//DTD SVG 20010904//EN"
 "http://www.w3.org/TR/2001/REC-SVG-20010904/DTD/svg10.dtd">
<svg version="1.0" xmlns="http://www.w3.org/2000/svg"
 width="1250.000000pt" height="937.000000pt" viewBox="0 0 1250.000000 937.000000"
 preserveAspectRatio="xMidYMid meet">

<g transform="translate(0.000000,937.000000) scale(0.100000,-0.100000)"
fill="#000000" stroke="none">
<path d="M2104 9352 c-7 -10 -31 -24 -55 -31 -39 -11 -111 -80 -584 -552 -396
-394 -547 -539 -564 -539 -14 0 -52 28 -104 77 -45 43 -84 80 -87 83 -17 20
-107 55 -178 71 -81 18 -85 18 -167 -1 -45 -11 -103 -31 -126 -45 -44 -24
-139 -106 -139 -119 0 -4 -11 -24 -25 -44 -14 -20 -25 -44 -25 -53 0 -9 -9
-28 -20 -42 -17 -21 -20 -40 -20 -126 0 -88 3 -104 20 -121 11 -11 20 -27 20
-36 0 -42 75 -130 320 -375 293 -294 322 -316 457 -339 116 -19 262 15 334 79
48 42 1417 1415 1437 1440 12 16 22 33 22 38 0 4 10 26 23 48 20 36 22 53 22
165 -1 117 -3 128 -28 175 -36 67 -55 93 -99 135 -54 51 -89 76 -121 84 -15 3
-36 15 -47 26 -18 18 -34 20 -138 20 -102 0 -119 -2 -128 -18z"/>
<path d="M3935 8459 c-97 -22 -162 -56 -222 -118 -64 -65 -70 -73 -78 -101 -4
-14 -14 -36 -24 -50 -13 -20 -16 -51 -16 -155 0 -104 3 -135 16 -155 10 -14
20 -36 24 -48 4 -13 14 -32 23 -42 10 -10 28 -33 42 -50 36 -45 123 -100 194
-121 59 -18 185 -19 4139 -19 3737 0 4084 1 4135 16 137 40 253 147 289 266 7
26 18 48 23 48 17 0 13 205 -4 219 -8 6 -19 32 -25 56 -6 25 -15 45 -20 45 -6
0 -13 10 -17 22 -9 30 -97 113 -153 143 -25 14 -85 35 -133 45 -86 20 -151 20
-4100 19 -3843 -1 -4016 -2 -4093 -20z"/>
<path d="M2123 5781 c-18 -5 -39 -13 -45 -19 -7 -5 -24 -13 -38 -17 -14 -4
-38 -17 -53 -29 -15 -12 -264 -256 -552 -543 -413 -412 -528 -521 -542 -516
-10 4 -54 40 -98 81 -95 89 -130 112 -214 140 -146 49 -324 6 -435 -105 -38
-38 -92 -122 -100 -155 -3 -15 -13 -33 -21 -42 -21 -21 -22 -221 -1 -229 8 -3
17 -21 21 -39 13 -62 73 -134 298 -359 265 -265 301 -297 387 -335 59 -26 75
-29 175 -29 95 0 116 4 150 23 22 12 43 22 48 22 5 0 25 12 45 27 45 34 1419
1410 1447 1450 58 83 69 122 69 248 0 114 -2 123 -31 185 -29 61 -78 118 -149
175 -18 14 -36 25 -41 25 -4 0 -26 10 -48 22 -32 17 -60 22 -140 24 -55 2
-115 -1 -132 -5z"/>
<path d="M3890 4876 c-83 -27 -134 -61 -193 -126 -81 -90 -99 -136 -104 -272
-5 -110 -4 -120 21 -172 14 -30 26 -58 26 -62 0 -4 19 -30 43 -59 40 -49 76
-78 122 -98 11 -4 26 -14 35 -21 46 -41 -67 -40 4130 -44 2937 -2 4041 0 4110
8 65 8 114 20 155 40 99 46 204 160 220 238 4 18 13 36 21 39 11 4 14 30 14
114 0 60 -4 109 -9 109 -5 0 -14 15 -20 33 -52 140 -143 229 -284 275 l-67 22
-4078 -1 -4077 -1 -65 -22z"/>
<path d="M2130 2206 c-53 -12 -73 -21 -153 -74 -21 -14 -268 -256 -550 -539
-311 -311 -519 -513 -531 -513 -10 0 -53 35 -96 78 -92 90 -116 109 -190 141
-46 20 -71 24 -155 24 -84 0 -109 -4 -155 -24 -131 -59 -211 -137 -254 -251
-10 -27 -22 -48 -27 -48 -5 0 -9 -49 -9 -109 0 -86 3 -110 14 -114 8 -3 20
-24 26 -47 18 -68 59 -115 327 -380 271 -269 295 -289 356 -309 21 -7 41 -19
44 -27 4 -11 31 -14 122 -14 104 0 117 2 128 19 7 11 26 22 44 26 17 4 49 19
70 34 32 22 1393 1380 1457 1453 12 14 22 32 22 39 0 8 10 30 22 49 20 31 22
48 23 160 0 111 -2 129 -22 165 -13 22 -23 45 -23 51 0 6 -9 19 -20 29 -11 10
-20 22 -20 27 0 13 -56 68 -69 68 -5 0 -14 6 -18 13 -13 20 -114 65 -171 77
-66 13 -121 11 -192 -4z"/>
<path d="M3935 1320 c-149 -40 -264 -137 -319 -267 -22 -53 -26 -77 -26 -163
0 -86 4 -109 28 -167 35 -86 132 -188 218 -230 l59 -28 4136 0 4136 0 54 25
c102 46 214 163 233 242 3 15 13 33 21 42 21 21 22 211 0 232 -8 8 -19 32 -25
53 -5 21 -17 44 -25 51 -8 7 -15 18 -15 24 0 14 -83 95 -125 121 -16 11 -55
31 -85 45 l-55 25 -4090 2 c-2249 0 -4103 -3 -4120 -7z"/>
</g>
</svg>
