<?xml version="1.0" standalone="no"?>
<!DOCTYPE svg PUBLIC "-//W3C//DTD SVG 20010904//EN"
 "http://www.w3.org/TR/2001/REC-SVG-20010904/DTD/svg10.dtd">
<svg version="1.0" xmlns="http://www.w3.org/2000/svg"
 width="1250.000000pt" height="1362.000000pt" viewBox="0 0 1250.000000 1362.000000"
 preserveAspectRatio="xMidYMid meet">

<g transform="translate(0.000000,1362.000000) scale(0.100000,-0.100000)"
fill="#000000" stroke="none">
<path d="M6138 13610 c-2 -6 -28 -17 -58 -25 -89 -23 -178 -73 -239 -134 -64
-63 -118 -138 -127 -179 -4 -15 -14 -38 -23 -52 -14 -22 -16 -71 -19 -365 -2
-187 -7 -344 -12 -349 -5 -5 -44 -15 -87 -22 -135 -21 -206 -35 -278 -54 -38
-10 -90 -22 -115 -26 -25 -3 -54 -11 -65 -17 -11 -6 -45 -16 -75 -23 -30 -7
-68 -17 -85 -23 -16 -6 -70 -24 -120 -41 -49 -16 -121 -42 -160 -56 -38 -14
-90 -33 -115 -42 -25 -8 -52 -21 -61 -29 -8 -7 -19 -13 -24 -13 -13 0 -292
-133 -335 -160 -8 -5 -55 -32 -105 -60 -101 -57 -112 -64 -175 -102 -56 -35
-68 -43 -141 -95 -32 -24 -61 -43 -65 -43 -3 0 -31 -20 -62 -45 -31 -25 -66
-51 -77 -60 -50 -38 -108 -84 -161 -130 -12 -11 -44 -38 -70 -60 -58 -49 -299
-289 -377 -376 -31 -35 -106 -127 -167 -204 -60 -77 -115 -147 -122 -155 -7
-8 -28 -38 -45 -65 -18 -28 -36 -54 -40 -60 -15 -19 -90 -137 -109 -170 -33
-59 -126 -222 -134 -235 -20 -32 -80 -158 -80 -167 0 -6 -6 -16 -14 -22 -8 -7
-17 -27 -20 -45 -4 -19 -13 -39 -21 -46 -7 -6 -17 -26 -20 -43 -4 -18 -13 -39
-20 -47 -7 -8 -18 -35 -25 -60 -7 -25 -16 -49 -20 -55 -4 -5 -13 -26 -18 -45
-6 -19 -25 -73 -42 -120 -17 -47 -37 -107 -44 -135 -7 -27 -17 -59 -23 -70 -6
-11 -13 -36 -16 -55 -4 -19 -15 -69 -26 -110 -32 -125 -51 -211 -61 -288 -6
-41 -14 -81 -19 -90 -4 -9 -14 -82 -20 -162 -7 -80 -19 -189 -27 -242 -11 -80
-14 -318 -15 -1310 0 -993 -3 -1230 -15 -1308 -7 -52 -18 -135 -24 -185 -6
-49 -15 -103 -20 -120 -5 -16 -14 -64 -20 -105 -7 -41 -18 -91 -25 -110 -7
-19 -16 -60 -20 -90 -4 -30 -13 -66 -20 -80 -7 -14 -16 -45 -19 -70 -8 -52
-34 -136 -100 -325 -10 -27 -22 -67 -27 -89 -5 -21 -16 -48 -24 -60 -8 -11
-15 -27 -15 -36 0 -9 -9 -33 -20 -55 -11 -22 -20 -44 -20 -49 0 -5 -8 -28 -19
-50 -10 -23 -31 -68 -45 -101 -14 -33 -35 -77 -46 -97 -11 -20 -20 -43 -20
-51 0 -8 -9 -26 -20 -40 -11 -14 -20 -31 -20 -37 0 -15 -211 -332 -276 -415
-13 -16 -30 -39 -38 -50 -30 -41 -199 -251 -215 -266 -9 -9 -41 -45 -71 -80
-83 -97 -204 -223 -314 -329 -54 -52 -122 -117 -151 -145 -58 -57 -96 -118
-115 -188 -7 -26 -17 -50 -21 -53 -12 -7 -12 -684 0 -684 5 0 14 -24 21 -53 7
-28 23 -69 36 -89 13 -21 24 -40 24 -43 0 -12 98 -98 138 -120 24 -13 69 -29
100 -35 41 -8 1754 -10 5947 -8 l5890 3 67 33 c74 37 120 78 167 147 29 43 61
139 61 184 0 12 5 21 10 21 13 0 14 574 1 598 -6 9 -17 49 -25 88 -18 87 -54
142 -150 232 -179 169 -246 235 -345 342 -129 141 -162 178 -226 255 -27 33
-63 75 -80 93 -16 19 -34 41 -39 50 -5 10 -35 49 -65 87 -31 39 -70 90 -86
115 -17 25 -33 47 -36 50 -11 9 -135 195 -150 225 -9 17 -20 39 -26 50 -6 11
-28 58 -50 105 -22 47 -52 110 -67 141 -14 31 -26 62 -26 70 0 8 -7 23 -15 33
-8 11 -15 27 -15 35 0 9 -11 39 -25 66 -13 28 -25 58 -25 68 0 9 -9 34 -20 54
-11 21 -20 47 -20 58 -1 11 -9 38 -20 60 -11 22 -19 48 -20 58 0 10 -9 39 -19
65 -11 26 -22 66 -25 88 -3 23 -12 54 -20 69 -8 15 -18 51 -21 79 -4 28 -11
59 -17 69 -9 17 -37 152 -63 297 -37 213 -45 269 -45 315 0 28 -7 88 -15 135
-13 72 -15 259 -15 1240 0 1096 -6 1419 -30 1510 -5 19 -14 76 -20 125 -10 86
-19 131 -56 290 -9 39 -22 97 -28 130 -7 33 -17 69 -23 80 -6 11 -14 40 -18
65 -4 25 -12 54 -18 65 -6 11 -18 47 -28 80 -9 33 -29 92 -44 130 -14 39 -31
86 -37 105 -6 19 -17 44 -24 55 -8 11 -14 26 -14 34 0 13 -39 103 -61 141 -5
8 -12 22 -15 30 -10 24 -114 234 -124 250 -5 8 -33 57 -62 108 -67 116 -86
148 -123 203 -16 24 -34 51 -40 60 -24 40 -90 135 -102 149 -7 8 -36 44 -63
80 -27 36 -55 71 -61 78 -6 7 -34 41 -62 75 -28 34 -58 68 -67 77 -8 9 -44 49
-80 90 -133 150 -398 388 -595 534 -11 9 -42 32 -70 53 -27 21 -68 50 -90 64
-22 14 -85 56 -141 92 -55 37 -105 67 -110 67 -6 0 -16 6 -22 12 -17 17 -127
78 -222 123 -41 20 -82 40 -90 46 -8 5 -26 14 -40 19 -14 6 -38 17 -55 25 -69
33 -144 65 -151 65 -4 0 -25 8 -48 19 -56 26 -135 55 -236 87 -47 14 -99 33
-116 40 -16 7 -50 16 -75 20 -24 4 -53 11 -64 17 -18 10 -88 27 -235 57 -30 7
-82 18 -116 26 -34 7 -88 16 -120 19 -164 16 -154 -6 -154 352 0 153 -5 305
-10 339 -8 51 -36 117 -86 204 -40 70 -197 178 -292 200 -30 7 -56 19 -59 26
-6 17 -169 20 -175 4z m457 -1820 c114 -9 209 -23 375 -57 41 -8 96 -19 122
-23 44 -8 95 -23 198 -57 25 -8 63 -19 85 -24 22 -5 63 -18 90 -29 28 -10 80
-31 116 -44 97 -37 294 -127 369 -169 36 -20 79 -44 95 -52 17 -9 48 -27 70
-40 22 -14 55 -32 73 -42 17 -9 32 -20 32 -25 0 -4 5 -8 11 -8 19 0 215 -141
339 -244 172 -143 402 -370 500 -495 19 -25 42 -52 50 -61 8 -9 22 -27 30 -40
8 -12 33 -46 55 -74 22 -28 62 -85 89 -126 27 -41 57 -86 66 -100 38 -57 140
-242 184 -335 81 -170 126 -273 126 -287 0 -6 9 -29 19 -52 22 -47 46 -118 65
-191 7 -27 17 -59 23 -70 6 -11 14 -42 18 -70 4 -27 13 -61 20 -75 7 -14 16
-52 20 -85 3 -33 13 -82 20 -110 8 -27 25 -126 37 -220 22 -167 23 -193 28
-1510 5 -1200 7 -1353 23 -1465 30 -218 66 -434 86 -520 6 -25 18 -76 26 -115
46 -204 73 -308 91 -355 8 -19 19 -57 24 -85 6 -27 15 -54 20 -60 5 -6 14 -33
21 -60 7 -27 18 -61 26 -75 7 -14 13 -32 13 -40 0 -9 9 -33 19 -54 11 -21 23
-52 27 -69 4 -18 15 -48 25 -67 11 -19 19 -42 19 -50 0 -9 6 -24 14 -35 7 -11
17 -31 21 -45 4 -14 15 -43 25 -65 10 -22 23 -51 29 -65 6 -14 15 -32 19 -40
5 -8 18 -35 30 -60 34 -76 83 -172 113 -225 16 -27 32 -56 36 -64 4 -8 26 -44
50 -80 24 -36 49 -75 56 -85 6 -10 21 -31 32 -45 11 -14 34 -46 50 -71 16 -25
35 -52 42 -60 16 -18 63 -80 83 -110 46 -67 313 -386 415 -495 92 -99 209
-215 216 -215 18 0 30 -40 19 -60 -11 -20 -21 -20 -5341 -20 l-5330 0 -8 23
c-9 22 2 57 18 57 5 0 58 50 118 111 134 137 132 136 201 217 31 37 61 72 68
77 15 13 246 306 304 385 25 34 53 70 63 81 9 10 17 22 17 26 0 3 12 21 26 40
14 18 45 64 70 101 24 37 49 74 54 82 40 59 149 270 212 410 58 126 91 206
128 305 12 33 28 74 35 90 14 32 38 103 60 175 20 63 44 136 66 195 11 28 19
58 19 67 0 9 8 44 19 79 26 90 51 192 67 277 7 40 16 77 19 83 4 6 15 63 26
127 10 64 23 144 28 177 5 33 19 139 31 235 20 168 21 229 24 1485 2 895 6
1324 13 1355 6 25 16 97 23 160 6 63 17 133 25 155 7 22 16 69 20 105 4 36 13
76 20 90 7 14 16 45 20 70 3 25 15 71 26 103 10 31 19 62 19 68 0 6 6 25 14
42 8 18 21 52 29 77 25 76 39 113 58 156 11 23 19 45 19 49 0 16 116 253 172
352 15 27 32 58 37 71 6 13 18 30 26 38 8 9 15 21 15 28 0 7 9 21 20 31 11 10
20 22 20 26 0 27 234 341 354 473 191 212 411 412 591 536 20 14 42 30 48 35
7 6 30 22 52 36 22 14 67 44 100 65 33 21 71 45 85 52 14 7 43 23 65 36 97 58
406 206 428 206 7 0 28 8 47 19 19 10 51 22 70 26 19 4 44 13 55 20 11 7 38
16 60 20 21 4 51 13 65 20 14 7 52 18 85 25 33 7 65 16 70 21 6 4 31 11 55 15
25 3 67 12 94 20 27 8 88 19 135 24 47 6 100 15 117 21 79 25 622 38 859 19z"/>
<path d="M5183 943 c-18 -7 -16 -79 3 -128 9 -22 20 -58 26 -80 6 -22 16 -47
23 -55 7 -8 16 -26 20 -40 7 -21 26 -57 80 -148 28 -48 257 -282 275 -282 5 0
25 -11 45 -24 34 -23 157 -85 235 -119 19 -8 68 -20 108 -27 50 -8 72 -16 72
-26 0 -21 345 -21 353 0 3 8 33 18 70 25 114 20 260 84 394 173 49 33 215 193
246 238 47 70 66 100 72 119 3 12 10 21 15 21 5 0 14 17 21 38 7 20 18 46 25
57 7 11 17 38 23 60 5 22 16 58 25 80 20 54 21 111 0 119 -19 7 -2113 7 -2131
-1z"/>
</g>
</svg>
