<?xml version="1.0" standalone="no"?>
<!DOCTYPE svg PUBLIC "-//W3C//DTD SVG 20010904//EN"
 "http://www.w3.org/TR/2001/REC-SVG-20010904/DTD/svg10.dtd">
<svg version="1.0" xmlns="http://www.w3.org/2000/svg"
 width="1252.000000pt" height="697.000000pt" viewBox="0 0 1252.000000 697.000000"
 preserveAspectRatio="xMidYMid meet">

<g transform="translate(0.000000,697.000000) scale(0.100000,-0.100000)"
fill="#000000" stroke="none">
<path d="M6850 6037 c0 -828 2 -935 16 -955 8 -12 21 -22 27 -22 7 0 35 -11
62 -25 28 -13 57 -25 66 -25 9 0 22 -7 29 -15 7 -8 27 -17 46 -21 18 -3 38
-12 44 -19 6 -8 26 -17 43 -21 18 -3 48 -14 67 -24 33 -17 75 -36 173 -79 23
-10 67 -30 98 -45 31 -14 62 -26 68 -26 7 0 24 -9 38 -20 14 -11 34 -20 45
-20 10 0 36 -8 56 -19 20 -10 57 -27 82 -38 25 -11 65 -30 90 -41 116 -54 160
-72 173 -72 8 0 20 -6 26 -14 7 -8 27 -18 44 -21 18 -4 39 -13 47 -20 8 -7 26
-16 40 -20 14 -3 45 -16 70 -27 25 -12 63 -29 85 -38 43 -18 108 -48 178 -79
121 -56 157 -71 170 -71 8 0 20 -6 26 -14 6 -8 32 -19 56 -25 25 -6 45 -15 45
-20 0 -5 15 -13 33 -16 17 -4 48 -15 67 -25 19 -10 55 -26 80 -37 25 -11 65
-29 90 -41 25 -11 71 -32 102 -46 31 -14 63 -26 71 -26 8 0 20 -6 26 -14 6 -8
31 -19 55 -25 24 -6 49 -17 56 -26 7 -8 21 -15 32 -15 10 0 36 -8 56 -19 98
-49 239 -111 255 -111 8 0 20 -7 27 -15 7 -8 27 -17 46 -21 18 -3 38 -12 44
-19 6 -8 25 -17 42 -21 17 -3 45 -15 62 -25 17 -10 38 -19 47 -19 9 0 28 -9
42 -20 14 -11 34 -20 45 -20 10 0 31 -9 45 -20 14 -11 30 -20 37 -20 10 0 64
-23 166 -71 23 -10 46 -19 51 -19 6 0 16 -7 23 -15 18 -22 -21 -62 -73 -76
-22 -6 -56 -19 -76 -30 -20 -10 -43 -19 -52 -19 -9 0 -22 -6 -28 -14 -7 -8
-27 -18 -44 -21 -18 -4 -39 -13 -47 -20 -8 -7 -26 -16 -40 -20 -14 -4 -50 -19
-80 -32 -70 -32 -127 -57 -187 -84 -27 -11 -61 -26 -78 -34 -16 -7 -57 -25
-90 -39 -33 -15 -77 -35 -97 -46 -20 -11 -44 -20 -53 -20 -9 0 -33 -9 -53 -20
-20 -11 -64 -31 -97 -46 -33 -14 -73 -32 -90 -39 -16 -8 -57 -26 -90 -40 -33
-14 -77 -34 -97 -45 -20 -11 -43 -20 -50 -20 -7 0 -35 -12 -63 -25 -27 -14
-55 -25 -61 -25 -6 0 -17 -7 -24 -15 -7 -8 -19 -15 -27 -15 -8 0 -40 -12 -71
-26 -31 -14 -77 -35 -102 -46 -25 -10 -62 -28 -82 -38 -20 -11 -46 -20 -56
-20 -11 0 -25 -6 -31 -14 -7 -8 -27 -18 -44 -22 -18 -3 -43 -15 -56 -25 -13
-11 -31 -19 -40 -19 -9 0 -38 -12 -66 -25 -27 -14 -55 -25 -61 -25 -6 0 -17
-7 -24 -15 -7 -8 -19 -15 -28 -15 -8 0 -33 -9 -56 -19 -23 -11 -68 -31 -101
-45 -33 -15 -77 -35 -97 -46 -20 -11 -46 -20 -56 -20 -11 0 -31 -9 -45 -20
-14 -11 -34 -20 -45 -20 -10 0 -31 -9 -45 -20 -14 -11 -30 -20 -37 -20 -13 0
-105 -40 -162 -70 -20 -11 -44 -20 -53 -20 -9 0 -28 -9 -42 -20 -14 -11 -32
-20 -41 -20 -8 0 -29 -9 -46 -19 -17 -10 -45 -22 -63 -26 -17 -3 -37 -12 -43
-20 -6 -7 -26 -16 -44 -19 -19 -4 -39 -13 -46 -21 -7 -8 -19 -15 -27 -15 -13
0 -62 -21 -169 -71 -23 -10 -45 -19 -50 -19 -5 0 -26 -11 -47 -25 l-37 -26 0
-929 0 -930 239 0 c227 0 239 1 244 19 3 13 19 24 45 30 22 6 45 18 52 26 7 8
20 15 30 15 9 0 29 9 43 20 14 11 30 20 36 20 5 0 30 11 54 23 24 13 53 27 63
30 11 4 26 11 34 17 8 5 26 14 40 20 14 5 32 14 40 19 32 19 122 61 132 61 5
0 21 9 35 20 14 11 33 20 43 20 9 0 27 9 40 20 13 11 31 20 40 20 10 0 29 9
43 20 14 11 30 20 36 20 11 0 99 41 131 61 8 5 26 14 40 20 14 6 32 15 40 20
8 5 26 14 40 20 62 28 216 102 230 110 8 5 26 14 40 19 14 6 32 15 40 20 8 6
23 13 33 17 10 3 57 25 104 49 47 24 91 44 98 44 7 0 24 9 38 20 14 11 32 20
40 20 8 0 25 8 38 19 13 10 35 22 49 26 14 4 32 13 40 20 8 8 29 17 45 21 17
4 41 15 54 26 13 10 32 18 41 18 10 0 23 7 30 15 7 8 17 15 23 15 6 0 70 29
142 64 71 36 141 70 155 75 14 6 32 15 40 20 8 5 83 42 165 81 83 39 157 76
165 81 8 5 22 12 30 15 29 11 125 56 140 65 8 5 26 14 40 20 14 6 32 15 40 20
8 5 25 14 38 19 12 6 32 14 45 20 12 5 29 14 37 18 8 5 38 19 65 32 28 13 57
27 65 32 8 4 31 15 50 23 19 9 42 20 50 25 8 6 26 15 40 20 35 15 192 90 210
101 8 5 25 14 38 19 12 6 32 14 45 20 12 5 29 14 37 19 18 11 175 86 210 101
14 5 32 14 40 19 35 22 307 151 317 151 6 0 16 6 22 14 7 8 25 18 41 21 16 3
34 12 40 20 6 8 26 17 43 21 18 3 43 15 56 25 13 11 30 19 38 19 8 0 26 9 40
20 14 11 31 20 38 20 6 0 68 29 138 64 69 35 134 66 144 69 10 4 25 11 33 16
8 5 90 46 183 91 l167 82 0 939 c0 852 -1 939 -16 939 -9 0 -27 9 -41 20 -14
11 -32 20 -40 20 -8 0 -26 9 -40 20 -14 11 -34 20 -43 20 -10 0 -23 7 -30 15
-7 8 -30 20 -51 27 -22 6 -44 17 -50 25 -6 7 -16 13 -22 13 -9 0 -185 82 -217
101 -8 5 -26 14 -40 20 -14 6 -33 15 -42 20 -10 5 -26 13 -35 18 -10 5 -29 14
-43 20 -14 6 -32 15 -40 20 -8 4 -42 20 -75 35 -33 15 -67 32 -75 37 -8 5 -26
14 -40 19 -14 6 -32 15 -40 20 -14 9 -24 14 -85 41 -11 5 -27 13 -35 18 -8 5
-26 14 -40 20 -14 6 -32 15 -40 20 -32 19 -126 61 -136 61 -7 0 -17 6 -23 14
-7 8 -24 17 -39 21 -15 4 -34 12 -42 20 -8 7 -32 18 -52 25 -21 6 -38 16 -38
21 0 5 -5 9 -12 9 -7 0 -57 22 -113 49 -55 27 -107 51 -115 55 -8 3 -22 10
-30 15 -8 5 -26 14 -40 20 -14 6 -32 15 -40 20 -14 9 -256 126 -310 150 -14 6
-32 15 -40 20 -8 5 -60 30 -115 56 -55 26 -107 51 -115 56 -8 5 -26 14 -40 20
-14 6 -32 15 -40 20 -14 8 -26 14 -85 40 -11 5 -27 13 -35 18 -8 5 -42 21 -75
36 -33 15 -67 31 -75 36 -8 5 -26 14 -40 19 -14 6 -32 15 -40 20 -8 6 -26 15
-40 20 -14 6 -32 15 -40 20 -8 6 -22 13 -30 16 -26 11 -304 145 -320 155 -8 5
-26 14 -40 19 -14 6 -32 15 -40 20 -8 6 -22 13 -30 16 -25 10 -204 96 -220
105 -14 8 -26 14 -85 40 -11 5 -27 13 -35 19 -8 5 -26 14 -40 20 -14 5 -32 14
-40 19 -8 5 -42 21 -75 36 -33 15 -67 31 -75 36 -8 5 -25 14 -37 19 -13 6 -33
14 -45 20 -13 5 -30 14 -38 19 -8 5 -26 14 -40 20 -14 6 -32 15 -40 20 -8 5
-26 14 -40 20 -14 6 -32 15 -40 20 -32 18 -128 61 -137 61 -6 0 -16 6 -22 13
-6 8 -29 19 -51 26 -22 6 -40 16 -40 21 0 6 -6 10 -13 10 -6 0 -75 32 -152 70
-77 39 -145 70 -151 70 -6 0 -17 6 -23 13 -6 8 -29 19 -51 26 -22 6 -40 16
-40 21 0 6 -5 10 -12 10 -22 0 -239 112 -245 126 -4 11 -48 14 -239 14 l-234
0 0 -933z"/>
<path d="M23 4343 l-23 -4 0 -889 0 -889 32 -6 c18 -3 1136 -4 2483 -3 l2450
3 3 884 c1 645 -1 887 -9 897 -10 12 -408 14 -2463 13 -1348 -1 -2461 -4
-2473 -6z"/>
</g>
</svg>
